Coordinates
version=1
nRows=17
nColumns=33
inDegrees=yes

Units are S.I. units (second, meters, Newtons, ...)
Angles are in degrees.

endheader
time	ground_thorax_rot_x	ground_thorax_rot_y	ground_thorax_rot_z	ground_thorax_tx	ground_thorax_ty	ground_thorax_tz	clav_prot_r	clav_elev_r	scapula_abduction_r	scapula_elevation_r	scapula_upward_rot_r	scapula_winging_r	shoulder_elv_r	plane_of_elev_r	axial_rot_r	elbow_flexion_r	pro_sup_r	wrist_flex_r	wrist_dev_r	clav_prot_l	clav_elev_l	scapula_abduction_l	scapula_elevation_l	scapula_upward_rot_l	scapula_winging_l	shoulder_elv_l	plane_of_elev_l	axial_rot_l	elbow_flexion_l	pro_sup_l	wrist_flex_l	wrist_dev_l	
5.8800	36.811460	-5.423228	4.877522	-5.667920	806.656012	1.867844	12.806566	39.987712	44.999999	38.381827	-11.635478	-2961.933019	-1918.835568	149.394973	-120.880944	1451.263383	15.062526	17.372137	11.050329	3.945439	-45.000000	-44.999999	45.000000	-13.335415	2606.170593	-3700.609215	139.868967	162.134229	365.042598	15.869863	12.896964	-17.816916	
5.8900	36.862056	-5.499736	4.869757	-4.241385	805.563944	1.934449	12.581108	39.555734	44.999998	37.948792	-11.266846	-2962.073707	-1918.995142	149.459242	-119.831641	1451.008318	14.983591	17.331004	10.965669	4.127842	-45.000000	-44.999998	45.000000	-13.385185	2605.997741	-3700.486298	139.799974	162.247393	365.012533	16.215823	12.756770	-17.821124	
5.9000	36.921382	-5.596777	4.841115	-2.953527	804.514000	1.968393	12.326778	39.178021	44.999997	37.535741	-10.893386	-2962.201717	-1919.138176	149.526448	-118.816277	1450.759679	14.943910	17.298896	10.904583	4.313950	-45.000000	-44.999996	45.000000	-13.384206	2605.839827	-3700.374974	139.745528	162.382895	364.991250	16.562141	12.617903	-17.836266	
5.9100	37.008773	-5.667308	4.862958	-1.955373	803.568843	1.936648	12.178950	38.882960	44.999995	37.217689	-10.662360	-2962.281139	-1919.242521	149.617395	-117.967348	1450.567564	14.971987	17.257045	10.891860	4.396037	-45.000000	-44.999994	45.000000	-13.385418	2605.733585	-3700.310321	139.727900	162.449877	364.976662	16.947816	12.446484	-17.866675	
5.9200	37.113938	-5.733174	4.900399	-1.275169	802.719046	1.832459	12.080278	38.669668	44.999991	36.972857	-10.523639	-2962.330969	-1919.321641	149.719389	-117.251186	1450.410927	15.081942	17.217833	10.914124	4.421455	-45.000000	-44.999989	45.000000	-13.364456	2605.674647	-3700.274210	139.733114	162.495265	364.964810	17.353640	12.260420	-17.909126	
5.9300	37.233075	-5.798409	4.946522	-0.958915	801.963541	1.647242	12.027405	38.541097	44.999984	36.792464	-10.470876	-2962.374843	-1919.383814	149.812089	-116.676036	1450.282081	15.287069	17.182909	10.957906	4.402050	-45.000000	-44.999980	45.000000	-13.330846	2605.675727	-3700.255951	139.741445	162.527213	364.950184	17.772351	12.072970	-17.958494	
5.9400	37.366294	-5.863804	4.989094	-1.016496	801.283719	1.382904	11.996562	38.473286	44.999971	36.672770	-10.486233	-2962.417169	-1919.429405	149.902031	-116.211470	1450.176379	15.596038	17.160519	11.009339	4.365855	-45.000000	-44.999964	45.000000	-13.295122	2605.713598	-3700.252207	139.756924	162.571220	364.928612	18.187628	11.893745	-18.010176	
5.9500	37.507573	-5.930387	5.022878	-1.438938	800.656052	1.048744	11.975651	38.446570	44.999948	36.598774	-10.558573	-2962.482985	-1919.471611	149.971164	-115.827814	1450.086658	16.010775	17.154377	11.051337	4.339515	-45.000000	-44.999935	45.000000	-13.277493	2605.795058	-3700.249598	139.757355	162.639111	364.899760	18.582880	11.739465	-18.058093	
5.9600	37.655338	-5.983370	5.061553	-2.213693	800.062632	0.658217	11.970709	38.432687	44.999906	36.571450	-10.706074	-2962.562118	-1919.502781	150.033496	-115.504951	1450.019817	16.527127	17.164977	11.078759	4.327757	-45.000000	-44.999884	45.000000	-13.299464	2605.898854	-3700.252568	139.762155	162.729880	364.861029	18.944622	11.602513	-18.099176	
5.9700	37.808395	-6.015823	5.118663	-3.325833	799.490768	0.227431	11.990559	38.430901	44.999832	36.583187	-10.943853	-2962.656749	-1919.519108	150.080546	-115.237450	1449.975613	17.137174	17.189323	11.087237	4.336548	-45.000000	-44.999792	45.000000	-13.379557	2606.038962	-3700.260251	139.766073	162.831959	364.822575	19.261625	11.490447	-18.133931	
5.9800	37.963263	-6.020520	5.204991	-4.759692	798.932145	-0.226650	12.034502	38.431765	44.999699	36.632561	-11.285179	-2962.743301	-1919.508850	150.132418	-115.010274	1449.960661	17.829001	17.227580	11.081052	4.367455	-45.000000	-44.999627	45.000000	-13.521966	2606.197184	-3700.276834	139.794972	162.937389	364.792106	19.523666	11.391757	-18.165561	
5.9900	38.113013	-6.000577	5.321856	-6.499765	798.381709	-0.687881	12.106859	38.441334	44.999461	36.706308	-11.729949	-2962.829356	-1919.479124	150.176527	-114.812428	1449.967252	18.584378	17.275263	11.059497	4.423710	-45.000000	-44.999331	45.000000	-13.730238	2606.393576	-3700.294684	139.830410	163.028973	364.773363	19.726454	11.311213	-18.193916	
6.0000	38.251159	-5.959630	5.464527	-8.531701	797.836864	-1.142361	12.201207	38.454529	44.999035	36.791880	-12.259191	-2962.914182	-1919.432551	150.219311	-114.622058	1449.988444	19.376140	17.327807	11.025721	4.502242	-45.000000	-44.998802	45.000000	-13.993995	2606.613217	-3700.311932	139.880817	163.098683	364.759368	19.869395	11.237345	-18.218251	
6.0100	38.380872	-5.906951	5.618389	-10.842742	797.296610	-1.579360	12.314743	38.480856	44.998272	36.882616	-12.836500	-2963.012078	-1919.377638	150.258795	-114.412049	1450.012899	20.176379	17.378703	10.980311	4.604251	-45.000000	-44.997855	45.000000	-14.312758	2606.858235	-3700.325962	139.928617	163.139019	364.747974	19.959983	11.176861	-18.238312	
6.0200	38.502224	-5.845610	5.774233	-13.422008	796.761029	-1.991726	12.440342	38.514379	44.996903	36.977777	-13.430228	-2963.127992	-1919.324512	150.309087	-114.148279	1450.037466	20.955398	17.424249	10.927837	4.728401	-45.000000	-44.996156	45.000000	-14.686231	2607.109055	-3700.336413	139.977171	163.155922	364.735504	20.009346	11.121708	-18.255101	
6.0300	38.615438	-5.775715	5.926524	-16.260050	796.231305	-2.375515	12.591196	38.562417	44.994455	37.078040	-14.027145	-2963.268725	-1919.284594	150.374735	-113.808541	1450.055108	21.686794	17.455443	10.864211	4.890609	-45.000000	-44.993117	45.000000	-15.139022	2607.362018	-3700.332906	140.009755	163.142785	364.719542	20.032778	11.073275	-18.267185	
6.0400	38.718248	-5.681843	6.094533	-19.348143	795.709802	-2.729424	12.785626	38.620731	44.990058	37.184800	-14.652132	-2963.435414	-1919.263155	150.451327	-113.410174	1450.059481	22.341846	17.467791	10.790545	5.107080	-45.000000	-44.987661	45.000000	-15.691704	2607.619259	-3700.319790	140.030063	163.094867	364.704464	20.040644	11.022317	-18.273785	
